<svg xmlns="http://www.w3.org/2000/svg" viewBox="0 0 24 24" width="120" height="120" fill="none" stroke="currentColor" stroke-width="2" stroke-linecap="round" stroke-linejoin="round">
  <path d="M9 18h6" />
  <path d="M10 22h4" />
  <path d="M12 2a7 7 0 0 0-4 12.8c.5.3.9.7 1.2 1.2.2.3.3.7.3 1H14.5c0-.3.1-.7.3-1 .3-.5.7-.9 1.2-1.2A7 7 0 0 0 12 2z" fill="currentColor" opacity="0.18" />
  <path d="M12 2a7 7 0 0 0-4 12.8c.5.3.9.7 1.2 1.2.2.3.3.7.3 1H14.5c0-.3.1-.7.3-1 .3-.5.7-.9 1.2-1.2A7 7 0 0 0 12 2z" />
  <polyline points="8,12 10,10 12,12 14,8 16,11" stroke-width="1.5" />
</svg>
